<svg version="1.1" baseProfile="full" width="500" height="500" viewBox="0 0 1000 1000" xmlns="http://www.w3.org/2000/svg">
    <path d="M125 10
           C 30 110, 10 270, 10 370
           S 25 825, 500 990
           C 975 825, 990 470, 990 370
           S 970 110, 875 10
           A 375 375 0 0 1 500 10
           A 380 380 0 0 1 125 10" fill="white" fill-opacity="1" />

    <path d="M125 25
           C 25 150, 25 300, 25 375
           S 37 813, 500 975
           C 963 813, 975 450, 975 375
           S 975 150, 875 25
           A 400 400 0 0 1 500 25
           A 400 400 0 0 1 125 25" fill="#00599B" fill-opacity="1" />

    <path d="M125 25
           C 35 150, 43 200, 35 235
           L 965 235
           C 957 200, 965 150, 875 25
           A 400 400 0 0 1 500 25
           A 400 400 0 0 1 125 25" fill="#C02D19" fill-opacity="1" />

    <rect x="30" y="235" width="940" height="25" fill="white" fill-opacity="1" />

    <text x="500" y="210" font-family="sans-serif" fill="white" font-size="175" text-anchor="middle">IKE</text>
    <text x="500" y="600" font-family="sans-serif" fill="white" font-size="250" text-anchor="middle">BOOT</text>
</svg>
